PathFileType	4	(X/Y/Z)	D:\TRACE\spot_10-12-23\spot_arm_body_motion_3_8-v60.trc
DataRate	CameraRate	NumFrames	NumMarkers	Units	OrigDataRate	OrigDataStartFrame	OrigNumFrames
100.00	100.00	      35	9	mm	100.00	1751	      7000
Frame#	Time	front left toe			Front right toe			aft left toe			aft right toe			Arm			FL body			FR body			AL Body			AR Body			
		X1	Y1	Z1	X2	Y2	Z2	X3	Y3	Z3	X4	Y4	Z4	X5	Y5	Z5	X6	Y6	Z6	X7	Y7	Z7	X8	Y8	Z8	X9	Y9	Z9	

1751	17.500	-132.52354	89.30673	-368.92044	260.23538	41.09110	-471.71814	-74.34830	9.16486	230.84003	375.11557	12.32990	145.13965	29.03996	851.03510	-693.68890	-8.40316	623.88959	-445.99619	143.29474	630.59045	-462.77960	85.07619	557.25580	430.63971	234.99059	556.99866	416.95715	
1752	17.510	-133.68213	101.79546	-373.24240	260.42545	41.51624	-471.24933	-74.57551	9.37288	231.01685	374.81891	12.04797	145.11945	28.92526	850.85577	-693.68463	-8.27622	623.64276	-445.16968	143.20239	630.00787	-461.95389	86.36796	555.99475	431.31824	235.60060	556.45178	417.70511	
1753	17.520	-133.26616	113.53388	-375.81854	259.91544	41.64009	-471.22220	-75.04675	9.45490	231.07855	374.26144	11.92331	145.07381	28.92162	850.54584	-693.76593	-8.12052	623.19977	-444.40326	143.09946	629.57178	-461.23999	86.32333	555.27014	432.05533	235.96240	555.66071	418.31467	
1754	17.530	-132.20848	122.90762	-375.40567	259.53165	41.80071	-471.19055	-75.45017	9.33487	231.23958	373.77026	11.88972	145.19998	29.13529	850.26874	-693.62268	-8.22393	622.96948	-443.83496	143.16092	629.32086	-460.59207	86.39442	554.57867	432.78473	236.25305	554.81146	418.75607	
1755	17.540	-131.51361	131.79947	-373.85843	259.29056	42.02727	-471.17682	-75.84949	9.05827	231.32666	373.47830	11.80178	145.34627	29.01710	850.06274	-693.45819	-8.04515	622.49438	-443.07721	143.08672	628.96680	-460.02008	86.59627	553.67688	433.32126	236.21437	554.03516	419.55521	
1756	17.550	-131.94409	139.25792	-372.02344	258.50034	42.13860	-471.23386	-76.13817	8.96422	231.30531	373.27280	11.87079	145.53349	29.10803	849.90613	-693.32959	-8.12551	622.03577	-442.57538	142.83945	628.95215	-459.79700	86.16373	552.71063	433.68436	235.92957	553.26752	420.24207	
1757	17.560	-132.93687	144.89362	-371.16275	258.14041	42.45525	-470.94019	-76.45496	8.86061	231.34781	372.96866	11.86411	145.59334	29.10989	849.73450	-693.23187	-8.22120	621.56421	-441.89133	142.58522	628.34863	-459.02902	85.89933	552.44556	434.78595	235.60356	552.71405	420.54999	
1758	17.570	-134.57680	149.23134	-371.67111	258.17004	42.75723	-470.58597	-76.97887	8.74676	231.63263	372.58212	11.75980	145.73653	29.13600	849.54974	-693.26123	-8.83280	621.08960	-441.25336	142.70543	627.36377	-458.04553	85.67154	552.03754	435.13550	235.25029	552.36615	421.38788	
1759	17.580	-134.38661	152.46761	-372.54779	257.24054	42.75026	-470.64413	-77.41428	8.73339	231.84735	372.06528	11.70040	145.84718	29.13954	849.66681	-693.34155	-9.51477	620.21851	-440.48669	142.17221	626.84985	-457.73529	85.19697	551.66998	435.50110	234.81937	552.02063	421.95877	
1760	17.590	-133.01326	152.38831	-372.03909	256.20602	42.71725	-470.74072	-77.82150	8.64585	232.09326	371.41910	11.61019	145.80151	29.79139	850.36523	-693.19666	-10.54703	619.64215	-440.11218	140.95093	626.15436	-456.75101	84.67509	551.15637	435.97278	234.52075	551.70941	422.21582	
1761	17.600	-130.74403	150.77917	-370.12180	255.33057	42.74628	-470.76144	-78.08445	8.49672	232.28621	371.11896	11.65112	145.94614	31.57461	851.31299	-692.56134	-11.84484	619.16931	-439.61984	139.82883	625.81244	-456.55463	84.49567	550.51111	436.72153	234.30753	551.21503	422.60452	
1762	17.610	-127.29376	148.73790	-367.13943	254.60007	42.83403	-470.71384	-78.50331	8.25769	232.24852	370.90845	11.67212	145.99893	34.01447	852.78912	-691.51855	-13.11339	618.53033	-438.91367	138.28801	625.56378	-456.25827	83.91719	550.09216	436.83624	233.64217	550.69189	422.83365	
1763	17.620	-124.24264	147.35603	-364.28052	254.00040	42.97715	-470.60529	-78.90412	8.16742	232.36589	370.68173	11.80216	146.14661	36.94404	854.20410	-690.77179	-14.39833	618.14313	-438.64493	136.72514	625.15411	-456.03833	82.98566	549.32477	437.24500	232.68011	550.26263	423.23630	
1764	17.630	-121.25343	146.71967	-362.39783	253.51740	43.17231	-470.44324	-79.42124	7.98668	232.57988	370.31232	12.00258	146.25807	39.21701	855.60950	-689.76593	-15.77977	617.96735	-438.30414	135.51816	624.95081	-455.63239	82.01768	548.93994	437.61108	231.85008	549.86871	423.46118	
1765	17.640	-119.90823	146.48758	-361.33041	253.13696	43.41615	-470.23511	-79.73244	7.63494	232.75056	369.86273	11.95956	146.32742	40.64437	856.46088	-689.06824	-16.73201	617.48572	-437.98499	134.87447	624.86487	-455.46906	80.67477	547.99622	437.89038	230.36171	549.10895	423.75266	
1766	17.650	-119.66326	147.01788	-361.88547	252.84494	43.70536	-469.98840	-80.25384	7.48732	232.70168	369.15012	11.75585	146.40102	41.28447	857.07098	-688.54559	-17.41421	617.45551	-437.74692	133.56859	625.40692	-455.55429	78.86726	547.26117	438.20932	228.69597	548.46301	424.32343	
1767	17.660	-119.68688	146.93402	-362.19855	252.62721	44.03660	-469.71051	-80.81875	7.34020	232.79047	368.54974	11.84414	146.50174	41.00587	857.17157	-688.09174	-17.78172	617.52826	-437.52499	132.37750	625.43048	-454.87653	77.15170	546.42725	438.84100	226.81999	547.65472	425.03265	
1768	17.670	-120.43829	146.67409	-362.23648	252.46964	44.40652	-469.40894	-81.55524	7.33107	232.90332	368.03094	11.80950	146.75110	39.29933	857.09277	-687.61877	-18.27108	617.82959	-437.27371	132.59242	625.36145	-454.21115	75.10082	545.66486	438.85547	224.76036	546.64478	425.41571	
1769	17.680	-121.53496	146.29285	-361.99017	252.35811	44.81179	-469.09109	-82.26707	7.22234	232.85327	367.77628	11.82339	147.16772	37.25502	856.93604	-687.40503	-18.71427	617.99402	-437.10544	132.31476	625.41595	-453.72968	72.89691	544.61816	439.12067	222.78110	546.11420	426.14471	
1770	17.690	-122.79994	144.23917	-361.89291	252.27849	45.24906	-468.76443	-82.50459	7.03122	232.86725	367.38898	11.93927	147.43723	34.97581	856.73096	-687.03973	-19.61390	618.16211	-436.80396	131.42116	625.48383	-453.33627	71.28863	544.02106	439.72543	220.99983	545.35162	426.68839	
1771	17.700	-125.39095	139.64532	-362.35553	252.21663	45.71501	-468.43631	-82.74047	6.83244	233.00661	366.57220	11.95077	147.47650	32.91629	856.19580	-687.21991	-20.60274	618.14655	-436.44794	130.04684	625.67120	-452.83145	69.49848	543.62231	439.94119	219.22615	544.78302	426.91519	
1772	17.710	-127.30985	132.12984	-363.66827	252.15839	46.20630	-468.11435	-83.27411	6.66284	233.12386	366.07870	11.91009	147.35457	31.42062	856.11987	-687.13538	-21.96592	617.80682	-436.04559	128.78580	625.60870	-452.45065	67.52458	543.11865	439.90182	217.75600	544.33490	427.21274	
1773	17.720	-129.02205	122.96026	-365.25751	252.08969	46.71958	-467.80588	-83.58596	6.38474	233.27193	365.77844	12.03491	147.32921	30.58535	855.97900	-687.26044	-23.94471	617.90698	-435.51987	127.04348	625.03430	-451.60843	66.65909	542.84424	440.31332	216.52855	544.10156	427.63394	
1774	17.730	-130.51286	112.03590	-366.63205	251.99635	47.25152	-467.51834	-84.04427	6.36742	233.37230	365.42325	12.01752	147.36261	30.18172	855.94250	-687.41516	-26.33102	618.05646	-435.03378	125.20363	625.33075	-451.34616	65.36154	542.27832	440.94580	215.28485	543.71832	427.84470	
1775	17.740	-132.06737	100.62802	-367.09805	251.86426	47.79879	-467.25925	-84.40863	6.25159	233.52740	365.21356	12.07513	147.44930	30.08455	856.10059	-687.58905	-28.61527	617.83759	-434.58484	122.76051	625.67548	-450.87909	64.47828	542.06744	441.36456	214.93436	543.66650	428.84509	
1776	17.750	-133.64938	89.81900	-366.84695	251.67928	48.35804	-467.03595	-84.66669	6.18735	233.60057	364.96100	12.09811	147.44942	30.37104	856.35461	-687.64172	-31.49748	617.88190	-434.18802	119.84447	625.63800	-450.95676	63.02195	541.63330	441.42328	212.78192	543.34351	427.93771	
1777	17.760	-134.58321	79.13431	-366.66843	251.42732	48.92594	-466.85596	-85.00793	6.09184	233.60812	364.60855	12.09082	147.48422	31.06952	856.55267	-687.78827	-33.88274	617.68451	-433.88342	117.52962	625.62933	-450.69666	61.72519	541.15234	441.64209	211.31241	543.11041	427.78647	
1778	17.770	-136.29399	68.46475	-366.40775	251.09416	49.49914	-466.72665	-85.43598	5.92838	233.81062	363.96021	12.02052	147.43584	31.68259	856.81812	-687.95703	-36.69994	617.39972	-433.76068	114.74499	625.48401	-450.83469	59.92342	541.28235	441.86191	209.55281	542.92938	428.03479	
1779	17.780	-137.73698	58.34721	-366.68478	250.66576	50.07432	-466.65558	-86.02814	5.93373	233.84442	363.30246	11.87863	147.32175	32.43652	857.02051	-688.18311	-39.19191	617.34039	-433.52008	111.17556	625.90771	-451.20074	58.05524	540.53479	441.86737	207.72949	542.85010	427.89459	
1780	17.790	-138.93974	48.19249	-367.41385	250.12794	50.64814	-466.65015	-86.39082	5.89373	233.86615	363.00623	11.88348	147.33606	32.80521	857.15363	-688.25873	-41.96032	617.12134	-433.66177	109.25960	625.65936	-451.59262	55.71781	540.73126	441.91351	205.34686	542.49188	427.74622	
1781	17.800	-139.78471	39.91258	-368.84265	249.46660	51.21725	-466.71774	-86.71619	5.79544	234.02818	362.54245	11.89032	147.43314	32.87376	857.24512	-688.31982	-44.46862	616.87952	-433.79056	106.81473	624.73663	-450.82220	53.09064	540.49353	441.88007	203.00061	542.43683	427.57407	
1782	17.810	-140.93715	39.04327	-368.70273	248.66757	51.77833	-466.86588	-87.17721	5.48856	234.02116	362.33832	11.95563	147.71738	32.51408	857.31396	-688.23059	-46.90340	617.08435	-433.91696	104.33316	624.60718	-451.08673	49.99154	540.30524	441.31747	199.77504	541.96692	427.27832	
1783	17.820	-141.81503	38.94245	-366.60425	247.71677	52.32802	-467.10193	-88.39654	4.78380	234.20880	360.84918	13.00909	146.71690	32.14067	857.38153	-688.13080	-49.82887	617.89575	-434.25879	101.80369	625.30884	-451.08527	47.56750	539.91620	440.83871	196.86583	541.19885	427.09100	
1784	17.830	-143.23082	38.24586	-367.48569	246.60001	52.86301	-467.43341	-90.55812	2.71371	234.89491	359.34470	14.31735	147.86151	31.47473	857.56543	-687.84351	-52.45652	619.16937	-434.53061	98.89076	625.35687	-451.58234	44.58669	539.94751	440.77786	194.38333	540.37872	426.37228	
1785	17.840	-143.56976	38.39040	-367.08960	245.57149	53.33537	-467.79703	-90.89146	2.46750	234.57478	358.50430	14.60116	147.99005	30.57231	858.10773	-687.54272	-54.73302	620.50677	-434.75485	96.12152	626.52191	-452.48038	42.05519	540.49567	439.92172	191.53305	540.04620	426.18533	
